<svg xmlns="http://www.w3.org/2000/svg" viewBox="0 0 566.93 566.93"><defs><style>.cls-1{fill:#1d1d1b;}.cls-2{fill:#312783;}.cls-3{fill:#be1622;}</style></defs><g id="Layer_1" data-name="Layer 1"><rect class="cls-1" x="39.88" y="284.36" width="29.56" height="67.64" rx="1.51"/><path class="cls-1" d="M195.52,284.36H169a1.51,1.51,0,0,0-1.51,1.51v42.28a1.51,1.51,0,0,1-2.79.81l-27.77-43.89a1.52,1.52,0,0,0-1.28-.71H125a1.52,1.52,0,0,0-1.52,1.51v28.59a1.54,1.54,0,0,0,.24.81l23.08,36a1.51,1.51,0,0,0,1.27.7h47.48a1.51,1.51,0,0,0,1.51-1.51V285.87A1.51,1.51,0,0,0,195.52,284.36Z"/><path class="cls-1" d="M113.49,284.36h-6.83a1.51,1.51,0,0,0-1.27,2.33l6.83,10.66a1.51,1.51,0,0,0,2.78-.81V285.87A1.52,1.52,0,0,0,113.49,284.36Z"/><rect class="cls-1" x="276.61" y="284.36" width="29.85" height="67.64" rx="1.51"/><path class="cls-1" d="M41.39,275.91H67.93a1.52,1.52,0,0,0,1.51-1.51V235.73a1.51,1.51,0,0,1,2.78-.82L98,275.21a1.48,1.48,0,0,0,1.27.7h14.18A1.52,1.52,0,0,0,115,274.4V250.85a1.53,1.53,0,0,0-.23-.81L88.79,209a1.52,1.52,0,0,0-1.28-.71H41.39a1.52,1.52,0,0,0-1.51,1.51V274.4A1.52,1.52,0,0,0,41.39,275.91Z"/><path class="cls-1" d="M423.47,284.36H395.91a1.52,1.52,0,0,0-1.51,1.51v26.27q0,22.25-12.95,34.46a37.17,37.17,0,0,1-3.18,2.7,1.5,1.5,0,0,0,.92,2.7h35.49a1.55,1.55,0,0,0,1.35-.8Q425,334.39,425,311v-25.1A1.52,1.52,0,0,0,423.47,284.36Z"/><path class="cls-1" d="M381.45,215.06q12.94,12.21,12.95,34.46V274.4a1.52,1.52,0,0,0,1.51,1.51h27.56A1.52,1.52,0,0,0,425,274.4V250.69q0-24.15-9.51-41.26c-.07-.14-.15-.27-.22-.4a1.54,1.54,0,0,0-1.32-.76H377.24a1.51,1.51,0,0,0-.86,2.75A38.9,38.9,0,0,1,381.45,215.06Z"/><rect class="cls-1" x="167.48" y="208.27" width="29.56" height="67.64" rx="1.51"/><path class="cls-1" d="M129.66,273.59l-3.42-5.4a1.51,1.51,0,0,0-2.79.8v5.41a1.52,1.52,0,0,0,1.52,1.51h3.41A1.51,1.51,0,0,0,129.66,273.59Z"/><rect class="cls-1" x="276.61" y="208.27" width="29.85" height="67.64" rx="1.51"/><path class="cls-1" d="M154.12,362.78l15.1,23.58a1.51,1.51,0,0,0,1.28.7h25a1.51,1.51,0,0,0,1.51-1.51V362a1.51,1.51,0,0,0-1.51-1.52H155.39A1.52,1.52,0,0,0,154.12,362.78Z"/><path class="cls-1" d="M341.76,360.45H278.12a1.52,1.52,0,0,0-1.51,1.52v23.72a1.52,1.52,0,0,0,1.51,1.52h63.64a1.51,1.51,0,0,0,1.51-1.52V362A1.51,1.51,0,0,0,341.76,360.45Z"/><rect class="cls-1" x="39.88" y="360.45" width="29.56" height="26.61" rx="1.51"/><path class="cls-1" d="M387.81,183.38q-14.76-7.26-34.47-8.61a1.52,1.52,0,0,0-1.61,1.52v22a1.51,1.51,0,0,0,1.51,1.51h52.34a1.51,1.51,0,0,0,1.12-2.53A63.71,63.71,0,0,0,387.81,183.38Z"/><path class="cls-1" d="M351.73,362v23.39a1.52,1.52,0,0,0,1.61,1.52q19.64-1.38,34.4-8.6A63.51,63.51,0,0,0,408,363a1.52,1.52,0,0,0-1.15-2.51H353.24A1.51,1.51,0,0,0,351.73,362Z"/><path class="cls-1" d="M343.27,198.31V176a1.51,1.51,0,0,0-1.51-1.52H278.12a1.52,1.52,0,0,0-1.51,1.52v22.34a1.52,1.52,0,0,0,1.51,1.51h63.64A1.51,1.51,0,0,0,343.27,198.31Z"/><path class="cls-1" d="M81.53,197.5,67.4,175.16a1.52,1.52,0,0,0-1.28-.71H41.39A1.52,1.52,0,0,0,39.88,176v22.34a1.52,1.52,0,0,0,1.51,1.51H80.25A1.51,1.51,0,0,0,81.53,197.5Z"/><rect class="cls-1" x="167.48" y="174.45" width="29.56" height="25.36" rx="1.51"/></g><g id="Layer_2" data-name="Layer 2"><path class="cls-2" d="M230.92,260.83h12.65v12.66H230.92Zm0,25.8h12.65V351H230.92Z"/><path class="cls-3" d="M437.7,349.76a11.39,11.39,0,0,1-4.79-5.06,17.67,17.67,0,0,1-1.66-8v-5.53a17.35,17.35,0,0,1,1.66-7.9,11.3,11.3,0,0,1,4.79-5,17.45,17.45,0,0,1,15.11,0,11.3,11.3,0,0,1,4.79,5,17.35,17.35,0,0,1,1.66,7.9v5.63a17.44,17.44,0,0,1-1.66,7.94,11.46,11.46,0,0,1-4.79,5,17.36,17.36,0,0,1-15.11,0Zm13-6.81a9,9,0,0,0,1.91-6.15v-5.63a8.9,8.9,0,0,0-1.91-6.11,7.87,7.87,0,0,0-10.83,0,8.9,8.9,0,0,0-1.91,6.11v5.63a9,9,0,0,0,1.91,6.15,7.79,7.79,0,0,0,10.83,0Z"/><path class="cls-3" d="M468.74,317h6.68v34h-6.68Zm16.46,6.41a8.11,8.11,0,0,0-3.11-.55,6.63,6.63,0,0,0-4.92,1.75,6.55,6.55,0,0,0-1.75,4.86l-.69-6.55a12.5,12.5,0,0,1,4.06-4.72,9.54,9.54,0,0,1,5.49-1.69,12.69,12.69,0,0,1,4.21.67,9.55,9.55,0,0,1,3.29,2l-4.36,5.89A5.63,5.63,0,0,0,485.2,323.45Z"/><path class="cls-3" d="M497.34,303.43H504v6.68h-6.67Zm0,13.61H504v34h-6.67Z"/><path class="cls-3" d="M515.62,348.89c-2.07-1.73-3.1-4.37-3.1-7.9,0-3.36.94-5.88,2.84-7.56s4.77-2.52,8.61-2.52h9.65l.46,5.37H524a5.71,5.71,0,0,0-3.91,1.16A4.54,4.54,0,0,0,518.8,341a4.41,4.41,0,0,0,1.72,3.83,8.88,8.88,0,0,0,5.21,1.24,14.94,14.94,0,0,0,5.71-.82,2.67,2.67,0,0,0,1.88-2.55l.69,4.78a7.8,7.8,0,0,1-2.18,2.25,9.59,9.59,0,0,1-3,1.33,15.45,15.45,0,0,1-3.83.44Q518.74,351.49,515.62,348.89Zm17.7-19.42a7.15,7.15,0,0,0-1.78-5.18,6.7,6.7,0,0,0-5-1.85,13.13,13.13,0,0,0-4,.62,11.88,11.88,0,0,0-3.45,1.73l-4.87-3.33a12.78,12.78,0,0,1,5.08-3.62,18.44,18.44,0,0,1,7-1.29,16.22,16.22,0,0,1,7.23,1.49,10.31,10.31,0,0,1,4.58,4.32,13.83,13.83,0,0,1,1.57,6.82V351h-6.35Z"/></g><g id="Layer_3" data-name="Layer 3"><rect y="144" width="567" height="17"/><rect y="406" width="567" height="17"/><rect y="145" width="18" height="278"/><rect x="549" y="144" width="18" height="278"/></g></svg>